<svg width="128" height="128" viewBox="0 0 128 128" fill="none" xmlns="http://www.w3.org/2000/svg">
<path d="M65.86 12.9399C61.3687 12.5674 56.835 13.6099 52.7925 15.5512C50.155 16.8199 47.7812 18.6349 45.8912 20.8699C44.8862 22.0837 44.055 23.4324 43.35 24.8387C41.2612 29.2799 40.6787 34.2699 40.75 39.1299C40.7237 40.2062 40.8912 41.2724 40.9125 42.3474C39.9775 42.2624 39.0662 42.8474 38.7225 43.7124C38.315 44.7549 38.36 45.8987 38.3825 46.9974C38.4675 48.5149 38.705 50.0249 39.1037 51.4924C39.6375 53.3974 40.465 55.3124 41.9625 56.6612C42.474 57.1554 43.1389 57.4336 43.7846 57.7037L43.8025 57.7112C43.955 58.1312 43.9837 58.5887 44.095 59.0212C44.5562 61.0149 45.3237 62.9274 46.2412 64.7524C46.96 66.2249 47.8562 67.6074 48.855 68.9037C48.875 70.3074 48.74 71.7162 48.745 73.1237C48.6325 74.3512 48.4975 75.6037 48.0325 76.7562C47.6037 77.7524 46.835 78.5774 45.925 79.1562C44.7912 79.9399 43.4375 80.2737 42.1837 80.8074C39.4462 81.8499 36.7087 82.8949 33.9862 83.9799C31.285 85.0637 28.5662 86.1012 25.8937 87.2549C23.9362 88.0462 21.9787 88.8874 20.235 90.0937C18.2612 91.3574 16.6237 93.1724 15.7137 95.3449C14.52 98.1574 13.7687 101.134 13.0937 104.106C12.56 106.801 12.0512 109.507 11.7925 112.245C11.7175 113.462 12.5862 114.659 13.76 114.984C18.2715 115.428 45 116.5 62.5 116.5C80.765 116.5 112.95 114.799 114.218 114.66C115.798 114.486 116.001 113.966 116.125 113.5C116.233 113.094 116.212 111.744 116.125 110.881C115.816 107.911 115.232 104.98 114.559 102.074C114.041 99.9312 113.426 97.8049 112.6 95.7587C111.922 94.1474 110.88 92.7024 109.622 91.4937C107.144 89.2137 103.961 87.9687 100.885 86.7274C95.31 84.4787 89.6887 82.3462 84.0762 80.1924C82.8162 79.7312 81.555 79.1099 80.7025 78.0399C79.4162 76.6099 79.3187 74.5837 79.1425 72.7674C79.1137 71.4662 79.05 70.1674 78.985 68.8674C79.9112 67.7987 80.7075 66.6199 81.3812 65.3774C82.5537 63.2187 83.4612 60.9099 83.985 58.5087C84.0562 58.2449 84.035 57.9362 84.19 57.7062C84.7 57.4724 85.2325 57.2737 85.6837 56.9312C87.035 55.9274 87.8987 54.4137 88.4737 52.8587C89.3262 50.5524 89.6737 48.0712 89.6187 45.6187C89.5437 44.6662 89.4462 43.6024 88.72 42.8987C88.2962 42.4387 87.6475 42.2974 87.0437 42.3612C87.1212 41.6599 87.15 40.9549 87.2187 40.2537C87.3537 36.4399 87.17 32.5674 86.1237 28.8762C85.0575 24.8187 82.8612 20.9812 79.5675 18.3287C75.6837 15.1974 70.8075 13.3924 65.86 12.9399Z" fill="white" fill-opacity="0.2"/>
</svg>
