<svg width="24" height="24" viewBox="0 0 24 24" fill="none" xmlns="http://www.w3.org/2000/svg">
<path d="M10.3853 7.12926C9.81624 6.85782 9.11014 7.42905 7.69775 8.57067L5.37939 10.4447C4.49036 11.1633 4.04541 11.5228 4.04541 12.0004C4.04571 12.4776 4.49066 12.8367 5.37939 13.555L7.69775 15.4291C9.11016 16.5707 9.81624 17.1419 10.3853 16.8705C10.9543 16.5987 10.9546 15.6899 10.9546 13.8734V13.0004H18.9546C19.5067 13.0004 19.9543 12.5524 19.9546 12.0004C19.9546 11.4481 19.5069 11.0004 18.9546 11.0004H10.9546V10.1263C10.9546 8.30983 10.9543 7.40101 10.3853 7.12926Z" fill="#F3F3F3"/>
</svg>
