<svg width="24" height="24" viewBox="0 0 24 24" fill="none" xmlns="http://www.w3.org/2000/svg">
<path d="M10.6601 13.2274V12.828C10.6601 11.0044 11.8449 10.057 12.6914 9.47255L12.6953 9.46962C13.4182 8.97587 13.8203 8.55184 13.8203 7.82118C13.8203 6.62212 12.8591 5.66111 11.6601 5.66103C10.4611 5.66103 9.49997 6.62207 9.49997 7.82118C9.49995 8.37345 9.05224 8.82118 8.49997 8.82118C7.9477 8.82118 7.49999 8.37345 7.49997 7.82118C7.49997 5.51759 9.35644 3.66103 11.6601 3.66103C13.9637 3.66111 15.8203 5.51764 15.8203 7.82118C15.8203 9.60318 14.6611 10.5498 13.8232 11.122C13.0733 11.6403 12.6601 12.0641 12.6601 12.828V13.2274C12.6601 13.7797 12.2123 14.2273 11.6601 14.2274C11.1078 14.2274 10.6601 13.7797 10.6601 13.2274Z" fill="#F3F3F3"/>
<path d="M11.668 16.7775C12.2203 16.7775 12.668 17.2252 12.668 17.7775C12.6678 18.3296 12.2202 18.7775 11.668 18.7775H11.6514C11.0992 18.7775 10.6516 18.3296 10.6514 17.7775C10.6514 17.2252 11.0991 16.7775 11.6514 16.7775H11.668Z" fill="#F3F3F3"/>
</svg>
