<svg width="24" height="24" viewBox="0 0 24 24" fill="none" xmlns="http://www.w3.org/2000/svg">
<path d="M13.999 11.998C13.999 13.103 13.103 14 11.997 14C10.893 14 9.995 13.104 9.995 11.998C9.995 10.892 10.892 9.99594 11.997 9.99594C13.103 9.99594 13.999 10.893 13.999 11.998ZM13.915 21.8149L14.529 21.6949L15.501 18.066L19.129 19.037L19.54 18.567C20.389 17.593 21.034 16.4749 21.457 15.2469L21.661 14.655L19.004 12L21.665 9.33896L21.461 8.74692C21.247 8.12792 20.981 7.53896 20.667 6.99496C20.352 6.45196 19.976 5.92497 19.547 5.43197L19.136 4.95895L15.503 5.93295L14.531 2.30697L13.918 2.18698C12.655 1.93898 11.343 1.93703 10.083 2.18503L9.47 2.30502L8.49698 5.93197L4.86798 4.96103L4.45801 5.43197C3.60901 6.40697 2.964 7.52494 2.543 8.75094L2.34 9.34299L4.99399 11.998L2.33301 14.659L2.53699 15.2509C2.75099 15.8689 3.017 16.458 3.332 17.003C3.647 17.546 4.023 18.073 4.452 18.566L4.86301 19.0389L8.496 18.0649L9.46799 21.691L10.08 21.811C10.713 21.936 11.362 21.999 12.007 21.999C12.645 22 13.288 21.9379 13.915 21.8149ZM10.43 17.547C10.151 16.503 9.009 15.8489 7.979 16.1319L5.578 16.7769C5.39 16.5249 5.21899 16.265 5.06699 16.003C4.91499 15.739 4.775 15.462 4.651 15.172L6.41 13.4139C6.788 13.0359 6.996 12.533 6.996 11.999C6.996 11.465 6.788 10.962 6.41 10.584L4.65698 8.83102C4.90298 8.25902 5.21301 7.72197 5.58301 7.22397L7.979 7.86691C9.02 8.14591 10.154 7.49599 10.431 6.45199L11.074 4.056C11.687 3.986 12.311 3.98495 12.928 4.05795L13.569 6.45102C13.844 7.49302 14.964 8.14499 16.021 7.86899L18.422 7.22397C18.61 7.47697 18.781 7.73601 18.933 7.99801C19.085 8.26101 19.224 8.53797 19.348 8.82797L17.591 10.5849C17.213 10.9609 17.004 11.4629 17.003 11.9969C17.002 12.5319 17.21 13.037 17.589 13.417L19.344 15.17C19.096 15.742 18.786 16.2789 18.416 16.7769L16.021 16.135C14.971 15.848 13.845 16.5059 13.567 17.5489L12.925 19.9449C12.619 19.9809 12.312 19.999 12.006 19.999C11.694 19.999 11.382 19.9799 11.07 19.9439L10.43 17.547Z" fill="#F3F3F3"/>
</svg>
