<svg width="46" height="46" viewBox="0 0 46 46" fill="none" xmlns="http://www.w3.org/2000/svg">
<g clip-path="url(#clip0_1144_727)">
<path d="M28.8286 28.8025H18.1015C18.1015 27.204 18.5643 25.6265 19.4897 24.07C20.4152 22.5135 21.53 21.2305 22.8341 20.2209C25.9891 17.5707 27.5666 15.4042 27.5666 13.7216C27.5666 11.7024 26.3256 10.6928 23.8437 10.6928C21.2355 10.6928 19.2163 12.3544 17.786 15.6777L8.19482 10.188C9.54096 6.86468 11.6443 4.29861 14.5048 2.48973C17.3654 0.680863 20.6256 -0.223572 24.2854 -0.223572C28.3238 -0.223572 31.7522 0.912231 34.5707 3.18384C37.3892 5.37131 38.7984 8.42115 38.7984 12.3334C38.7984 14.0581 38.4408 15.6777 37.7257 17.1921C37.0526 18.7065 36.2323 19.9685 35.2648 20.9781C34.2973 21.9877 33.3297 22.9342 32.3622 23.8176C31.3946 24.6589 30.5533 25.5003 29.8382 26.3416C29.1651 27.1829 28.8286 28.0032 28.8286 28.8025ZM16.9026 39.214C16.9026 37.4051 17.5336 35.8697 18.7956 34.6077C20.0997 33.3036 21.6562 32.6516 23.4651 32.6516C25.2739 32.6516 26.8094 33.3036 28.0714 34.6077C29.3754 35.8697 30.0275 37.4051 30.0275 39.214C30.0275 41.065 29.3754 42.6214 28.0714 43.8834C26.8094 45.1454 25.2739 45.7764 23.4651 45.7764C21.6562 45.7764 20.0997 45.1454 18.7956 43.8834C17.5336 42.6214 16.9026 41.065 16.9026 39.214Z" fill="white"/>
</g>
<defs>
<clipPath id="clip0_1144_727">
<rect width="46" height="46" fill="white"/>
</clipPath>
</defs>
</svg>
