<svg width="88" height="119" viewBox="0 0 88 119" fill="none" xmlns="http://www.w3.org/2000/svg">
<g clip-path="url(#clip0_837_3485)">
<rect width="87.8997" height="118.665" rx="17.5799" fill="#1E1E1E"/>
<rect y="5.39502" width="87.8997" height="109.875" rx="15.3824" fill="#282828"/>
<ellipse cx="72.9322" cy="5.44003" rx="4.39498" ry="2.19749" transform="rotate(5.40337 72.9322 5.44003)" fill="#474747"/>
<ellipse cx="80.3128" cy="7.60093" rx="2.27601" ry="1.68581" transform="rotate(27.5746 80.3128 7.60093)" fill="#474747"/>
<rect x="23.0737" y="33.9623" width="41.0272" height="52.8233" rx="13.185" fill="#1E1E1E"/>
<path d="M47.6725 64.9908H39.4539C39.4539 63.7661 39.8084 62.5575 40.5175 61.365C41.2266 60.1725 42.0806 59.1894 43.0798 58.4159C45.497 56.3854 46.7056 54.7256 46.7056 53.4364C46.7056 51.8894 45.7549 51.1159 43.8533 51.1159C41.855 51.1159 40.308 52.3889 39.2122 54.9351L31.8638 50.7291C32.8951 48.1829 34.5066 46.2169 36.6983 44.831C38.8899 43.4451 41.3877 42.7522 44.1917 42.7522C47.2858 42.7522 49.9125 43.6224 52.0719 45.3628C54.2313 47.0388 55.311 49.3754 55.311 52.3728C55.311 53.6942 55.0371 54.9351 54.4892 56.0954C53.9735 57.2556 53.345 58.2225 52.6037 58.9961C51.8624 59.7696 51.1211 60.4947 50.3798 61.1716C49.6386 61.8162 48.994 62.4608 48.446 63.1054C47.9304 63.75 47.6725 64.3785 47.6725 64.9908ZM38.5354 72.9677C38.5354 71.5818 39.0188 70.4054 39.9857 69.4385C40.9848 68.4394 42.1773 67.9399 43.5632 67.9399C44.9491 67.9399 46.1255 68.4394 47.0924 69.4385C48.0915 70.4054 48.5911 71.5818 48.5911 72.9677C48.5911 74.3858 48.0915 75.5783 47.0924 76.5452C46.1255 77.5121 44.9491 77.9956 43.5632 77.9956C42.1773 77.9956 40.9848 77.5121 39.9857 76.5452C39.0188 75.5783 38.5354 74.3858 38.5354 72.9677Z" fill="#282828"/>
<ellipse cx="22.1762" cy="76.8873" rx="2.65096" ry="3.84561" transform="rotate(-13.9058 22.1762 76.8873)" fill="#474747"/>
</g>
<defs>
<clipPath id="clip0_837_3485">
<rect width="88" height="119" fill="white"/>
</clipPath>
</defs>
</svg>
